HIERARCHY
ROOT Hips
{
  OFFSET -69.4423 88.0299 51.6846
  CHANNELS 6 Xposition Yposition Zposition Zrotation Xrotation Yrotation
  JOINT Spine
  {
    OFFSET 12.0259 -0.162853 1.93176e-005
    CHANNELS 3 Zrotation Xrotation Yrotation
    JOINT Spine1
    {
      OFFSET 15.3169 -0.0121909 0
      CHANNELS 3 Zrotation Xrotation Yrotation
      JOINT Spine2
      {
        OFFSET 15.3176 -0.0121922 0
        CHANNELS 3 Zrotation Xrotation Yrotation
        JOINT Neck
        {
          OFFSET 19.9142 1.56236 0
          CHANNELS 3 Zrotation Xrotation Yrotation
          JOINT Head
          {
            OFFSET 6.92646 0 0
            CHANNELS 3 Zrotation Xrotation Yrotation
            End Site
            {
              OFFSET 20.7666 0 0
            }
          }
          JOINT LeftShoulder
          {
            OFFSET -4.94072 -1.14703 8.14416
            CHANNELS 3 Zrotation Xrotation Yrotation
            JOINT LeftArm
            {
              OFFSET 14.108 0 -2.74767e-005
              CHANNELS 3 Zrotation Xrotation Yrotation
              JOINT LeftForeArm
              {
                OFFSET 28.5802 -0.0783412 -0.0284884
                CHANNELS 3 Zrotation Xrotation Yrotation
                JOINT LeftHand
                {
                  OFFSET 27.092 0 0
                  CHANNELS 3 Zrotation Xrotation Yrotation
                  End Site
                  {
                    OFFSET 9.55928 -0.186424 0.145352
                  }
                }
              }
            }
          }
          JOINT RightShoulder
          {
            OFFSET -7.15748 -1.33027 -6.24935
            CHANNELS 3 Zrotation Xrotation Yrotation
            JOINT RightArm
            {
              OFFSET 14.108 0 1.82997e-005
              CHANNELS 3 Zrotation Xrotation Yrotation
              JOINT RightForeArm
              {
                OFFSET 28.5802 -0.0707221 2.30684e-005
                CHANNELS 3 Zrotation Xrotation Yrotation
                JOINT RightHand
                {
                  OFFSET 27.092 0 -1.30073e-005
                  CHANNELS 3 Zrotation Xrotation Yrotation
                  End Site
                  {
                    OFFSET 9.55929 -0.186417 -0.145354
                  }
                }
              }
            }
          }
        }
      }
    }
  }
  JOINT LeftUpLeg
  {
    OFFSET 0.00499725 -0.534999 8.837
    CHANNELS 3 Zrotation Xrotation Yrotation
    JOINT LeftLeg
    {
      OFFSET 39.9035 -0.00124594 0.000252775
      CHANNELS 3 Zrotation Xrotation Yrotation
      JOINT LeftFoot
      {
        OFFSET 39.6689 0 0
        CHANNELS 3 Zrotation Xrotation Yrotation
        JOINT LeftToe
        {
          OFFSET 10.1624 13.6296 0
          CHANNELS 3 Zrotation Xrotation Yrotation
          End Site
          {
            OFFSET 8.38147 0 0
          }
        }
      }
    }
  }
  JOINT RightUpLeg
  {
    OFFSET 0.00499725 -0.535 -8.837
    CHANNELS 3 Zrotation Xrotation Yrotation
    JOINT RightLeg
    {
      OFFSET 39.9036 -0.000268477 0.000106433
      CHANNELS 3 Zrotation Xrotation Yrotation
      JOINT RightFoot
      {
        OFFSET 39.6689 1.17892e-005 0
        CHANNELS 3 Zrotation Xrotation Yrotation
        JOINT RightToe
        {
          OFFSET 10.1624 13.6296 0
          CHANNELS 3 Zrotation Xrotation Yrotation
          End Site
          {
            OFFSET 8.38147 0 0
          }
        }
      }
    }
  }
}
MOTION
Frames:	16
Frame Time:	0.0333333
-76.8833 87.7626 46.6847 146.162 -86.4431 61.6056 2.30479 0.615156 -0.613325 4.61639 1.20558 -1.25086 4.61639 1.20558 -1.25087 -5.93649 8.89823 -12.0712 65.5705 6.22213 1.94862 -173.586 8.80099 -96.8568 -12.3318 6.60893 86.4802 -31.4366 4.35217 -19.1705 10.2946 -85.3938 12.811 -173.502 7.05113 72.4326 -18.1107 -5.40422 -80.5265 -38.1525 -7.17607 21.9425 8.97349 87.8507 -8.9358 0.385715 -2.82376 173.517 -10.9108 1.05057 -1.15067 3.20688 10.1986 0.423315 90 2.38542e-015 9.54166e-015 -34.3153 1.90526 174.126 -44.8702 -0.169195 0.298505 1.30561 -0.463945 -0.519575 90 -8.94531e-016 6.55989e-015 
-77.0374 87.9292 48.717 143.502 -86.9446 58.8567 2.4348 0.721639 -0.625414 4.87788 1.41649 -1.28093 4.87787 1.41648 -1.28093 -6.04246 9.03436 -11.8046 65.9876 6.03648 1.4608 -173.474 8.94602 -96.5932 -11.2659 6.56208 85.9943 -31.0135 4.24915 -18.9379 21.3385 -87.4677 23.7179 -173.398 7.2049 72.6365 -18.3893 -5.18744 -80.7638 -37.4692 -6.93266 21.6137 6.50636 87.0701 -6.45585 -1.33185 -2.60261 173.472 -12.0881 1.05241 -1.13709 2.84131 10.5697 0.488545 90 -7.95139e-016 6.36111e-015 -34.2267 0.971678 173.722 -52.0131 -0.147831 0.24277 2.88495 1.854 -0.355183 90 2.00773e-014 1.27222e-014 
-77.0262 88.0562 50.71 137.93 -87.3892 52.621 2.5204 0.849535 -0.533097 5.04952 1.67523 -1.10305 5.04953 1.67523 -1.10306 -5.78045 9.13527 -11.7919 66.0755 6.33593 1.46871 -173.709 9.07196 -96.556 -11.0635 6.9101 85.5251 -30.8843 4.22637 -18.8462 25.4053 -87.8029 27.8883 -173.64 7.35742 72.6542 -18.3895 -5.31316 -81.2945 -36.9674 -6.75703 21.372 5.97712 86.7678 -5.91618 -3.1921 -2.54823 174.106 -14.3196 1.05291 -1.10375 2.35386 10.6595 0.599145 90 1.07344e-014 -7.95139e-015 -32.8077 0.0136253 173.92 -57.6693 -0.154999 0.151441 3.04876 0.803465 -0.472383 90 -7.95139e-015 -2.78299e-015 
-76.9053 88.2263 52.5703 133.551 -87.9395 47.5841 2.62442 0.945855 -0.429677 5.25691 1.87151 -0.902273 5.2569 1.8715 -0.902283 -5.95166 9.22418 -11.766 66.3353 6.38033 1.29734 -173.513 9.10124 -96.522 -10.0563 7.04517 85.127 -29.9731 4.00227 -18.356 16.7151 -86.7014 19.0017 -173.452 7.42916 72.6051 -18.7875 -5.43883 -81.6787 -36.6656 -6.64795 21.2326 6.11757 86.8839 -6.07984 -4.30663 -2.51256 174.822 -15.0324 1.05034 -1.11274 1.63575 10.6518 0.723807 90 3.97569e-016 -4.77083e-015 -30.2511 -0.68082 174.415 -61.7128 -0.170586 0.061156 3.21592 0.291848 -0.528441 90 1.92821e-014 -5.96354e-016 
-76.7818 88.3958 54.4722 128.182 -87.8673 42.0902 2.56301 1.06992 -0.47397 5.1361 2.11801 -0.995455 5.1361 2.118 -0.995463 -5.43357 8.94064 -11.5012 65.8773 6.06045 1.56116 -174.139 8.91668 -96.1752 -10.5508 8.07178 84.7732 -29.9677 3.98968 -18.3055 17.0986 -86.7015 19.4295 -174.053 7.31437 72.9726 -18.6777 -6.01589 -82.4414 -36.5345 -6.58858 21.1649 4.79865 86.3562 -4.76551 -5.5406 -2.55242 175.078 -14.8731 1.04014 -1.13885 0.622582 11.2394 0.899392 90 1.15295e-014 -1.90833e-014 -27.2316 -1.27875 174.351 -63.9027 -0.188383 -0.0177881 3.16044 -0.977769 -0.635297 90 -9.24349e-015 -5.96354e-016 
-76.5166 88.5702 56.3787 123.633 -87.5628 36.8986 2.47978 1.13306 -0.414498 4.96916 2.24757 -0.877758 4.96915 2.24757 -0.877779 -5.3013 8.79613 -11.6337 65.8308 6.43658 2.30432 -174.296 8.72291 -96.2783 -10.0451 8.65239 84.4376 -29.7591 3.93815 -18.1631 14.3287 -86.4374 16.7427 -174.202 7.17327 72.8662 -18.5533 -6.26103 -83.0848 -36.2403 -6.48601 21.0207 4.01457 85.715 -3.97022 -6.84807 -2.62858 175.962 -14.8543 1.0264 -1.17293 -0.606855 11.7567 1.1526 90 1.19271e-014 1.90833e-014 -23.4564 -1.99955 175.105 -63.8231 -0.227302 -0.112228 2.97048 -3.09146 -0.818454 90 -3.97569e-016 2.18663e-015 
-76.2227 88.6416 58.3203 121.542 -87.1302 34.3604 2.36398 1.17938 -0.40637 4.7378 2.34146 -0.861191 4.73779 2.34145 -0.861203 -5.06875 8.66426 -11.4157 65.6414 6.31362 2.45142 -174.594 8.62952 -96.004 -9.77985 9.18879 84.0297 -29.2678 3.82445 -17.8774 17.3367 -87.0099 19.8137 -174.5 7.12479 73.1251 -18.1112 -6.5429 -83.9905 -35.9654 -6.39632 20.8929 3.56634 85.1297 -3.50661 -8.50005 -2.36799 176.632 -15.0107 1.01132 -1.19227 -1.54221 12.7456 1.42723 90 1.66979e-014 6.36111e-015 -19.2482 -2.06976 176.109 -61.7542 -0.281596 -0.207746 2.55713 -5.85541 -1.0816 90 -1.59028e-015 -1.19271e-015 
-75.8495 88.6349 60.3371 121.496 -86.6498 33.8615 2.30613 1.11516 -0.340581 4.62015 2.21618 -0.725838 4.62015 2.21617 -0.725857 -5.28076 8.77749 -11.6662 65.5778 6.68579 2.40951 -174.327 8.64508 -96.265 -8.31622 9.01745 83.9152 -28.6711 3.69241 -17.5606 16.2801 -86.8887 18.6753 -174.247 7.16946 72.814 -18.6861 -6.70435 -84.2833 -35.7718 -6.33065 20.8076 4.10955 85.7258 -4.0613 -10.5156 -2.84614 177.241 -15.6487 0.998375 -1.2067 -2.64109 13.2878 1.71249 90 -9.93923e-015 3.18055e-015 -14.7154 -1.73432 177.515 -57.7079 -0.348665 -0.282689 2.21408 -7.16181 -1.24154 90 -5.56597e-015 3.18055e-015 
-75.3867 88.5627 62.4407 122.816 -86.1958 34.471 2.23927 1.26519 -0.28497 4.48644 2.51871 -0.619265 4.48644 2.51871 -0.619283 -5.2213 8.49668 -11.4072 65.3246 6.37328 2.65986 -174.467 8.39485 -95.9408 -7.82454 8.68321 83.5601 -27.9732 3.54307 -17.1986 14.2688 -86.3386 16.6093 -174.406 6.91924 73.0913 -18.3583 -6.72877 -84.9195 -35.7435 -6.31585 20.794 4.36765 85.9268 -4.33636 -12.9925 -3.11215 178.117 -16.8524 0.978482 -1.20565 -3.41236 13.5759 1.95048 90 1.11319e-014 3.18055e-015 -9.77471 -1.07862 179.358 -51.1273 -0.443393 -0.313956 0.545715 -6.47311 -1.277 90 4.77083e-015 -1.59028e-015 
-74.9128 88.32 64.6593 126.158 -85.7419 37.1871 2.12447 1.41163 -0.246967 4.25692 2.81365 -0.546234 4.2569 2.81363 -0.546239 -5.05658 8.2814 -11.45 65.0745 6.42064 3.16849 -174.681 8.16682 -95.941 -8.02299 8.97045 83.3312 -27.7294 3.47198 -17.0623 19.1629 -87.1662 21.354 -174.618 6.70743 73.111 -18.9988 -7.2801 -85.4633 -35.7754 -6.32547 20.8098 4.5962 86.0834 -4.54848 -16.0012 -3.44301 178.845 -18.6653 0.953953 -1.20174 -4.14308 13.8716 2.17683 90 -7.55382e-015 -7.95139e-015 -4.78484 -0.179268 -179.085 -42.1844 -0.54886 -0.292536 1.68241 -7.15879 -1.33863 90 7.95139e-015 -1.59028e-015 
-74.5362 88.0793 67.0764 128.671 -85.2804 39.4123 2.07035 1.51872 -0.222713 4.1488 3.02887 -0.50031 4.14878 3.02886 -0.500323 -4.97679 8.27452 -11.4594 64.9609 6.22731 2.88085 -174.763 8.19387 -95.9353 -8.58666 8.69321 83.3938 -27.7547 3.49239 -17.0999 17.1186 -86.808 19.4257 -174.705 6.68726 73.1356 -19.7047 -7.4458 -85.6305 -35.9234 -6.37042 20.8853 4.71871 86.1512 -4.68075 -18.6995 -3.70804 179.18 -19.481 0.922339 -1.21598 -5.4536 13.9892 2.46072 90 -1.07344e-014 -1.59028e-015 -0.960388 -0.241851 -178.294 -33.454 -0.614426 -0.198708 6.49695 -6.26327 -1.09405 90 3.18055e-015 3.18055e-015 
-74.1423 88.0981 69.6844 142.296 -85.3631 52.4392 2.06452 1.73477 -0.0859941 4.13448 3.46581 -0.234514 4.13447 3.46579 -0.234516 -5.51149 8.62911 -11.6735 65.9269 6.2154 2.21481 -174.132 8.4587 -96.2349 -7.72969 7.62296 84.0048 -27.7825 3.52204 -17.1757 13.9661 -86.2656 16.2873 -174.086 6.8767 72.8047 -20.7961 -7.00569 -84.7973 -35.3775 -6.18525 20.6071 4.69041 86.1374 -4.62502 -20.7098 -4.61154 179.921 -18.9703 0.87179 -1.28489 -6.88427 12.1066 2.40733 90 1.07344e-014 1.59028e-015 -0.0898105 -1.01793 -177.587 -27.8584 -0.659306 -0.0975093 7.94838 -5.26622 -1.04186 90 7.55382e-015 -7.95139e-016 
-73.7218 88.1528 72.4254 164.929 -85.1299 74.0974 1.99916 2.11031 0.0652735 4 4.22211 0.0569865 3.99999 4.2221 0.0569778 -5.52175 8.70865 -11.5792 65.7572 6.06411 1.69658 -174.132 8.56538 -96.1675 -6.31379 6.97204 85.0516 -28.4071 3.70097 -17.5523 12.5719 -85.5484 14.9458 -174.071 6.95775 72.8989 -20.7689 -6.66885 -84.1853 -35.2978 -6.14982 20.5486 3.80053 85.5458 -3.72474 -22.7829 -5.18003 -178.609 -18.7882 0.794028 -1.3565 -5.90443 9.39426 1.83384 90 8.54774e-015 -1.11319e-014 -1.18629 -2.51285 -176.736 -24.7461 -0.684124 -0.0537427 8.24992 -6.20596 -1.06071 90 1.39149e-014 -1.35174e-014 
-73.4881 88.1891 75.029 -175.262 -84.5183 94.0994 2.03944 2.36857 -0.0127447 4.0846 4.73567 -0.109933 4.08459 4.73566 -0.109943 -6.23552 8.93884 -11.5431 65.7893 6.31385 1.12043 -173.424 8.64223 -96.2732 -5.69787 6.99815 86.3431 -29.1478 3.89946 -17.9712 14.5505 -85.5971 17.0013 -173.321 7.04413 72.8301 -21.2097 -6.55535 -83.4369 -35.4937 -6.2203 20.6442 3.97678 85.5623 -3.89285 -24.0531 -4.04261 -178.023 -18.7388 0.72951 -1.42665 -2.65351 6.00828 1.04624 90 4.17448e-015 3.18055e-015 -3.00206 -2.69344 -177.181 -23.4546 -0.680504 -0.0317193 8.89466 -7.6921 -1.06549 90 2.78299e-015 1.03368e-014 
-73.3737 88.342 77.4678 -168.706 -84.1053 101.198 2.17082 2.38781 -0.161573 4.35406 4.76826 -0.414041 4.35405 4.76826 -0.41405 -6.70209 9.17008 -11.1473 65.5217 6.42625 0.266963 -173.004 8.82159 -96.0043 -7.42795 7.73925 87.0663 -29.8925 4.04757 -18.365 24.1285 -87.5082 26.6492 -172.851 7.25215 73.1625 -21.1146 -6.25915 -82.8782 -36.0806 -6.42281 20.9422 4.86909 86.2838 -4.82578 -24.5173 -2.6193 -177.973 -18.7067 0.697703 -1.48334 -1.5077 2.69098 0.542591 90 -1.07592e-014 -1.59028e-015 -4.86291 -2.7449 -177.895 -23.3464 -0.658545 -0.0252673 9.65935 -8.85045 -1.02935 90 -1.59028e-014 -1.59028e-015 
-73.4358 88.5788 79.749 -168.923 -83.8651 101.427 2.2267 2.27345 -0.232876 4.46786 4.53656 -0.554542 4.46786 4.53656 -0.554561 -6.27293 9.2662 -10.7653 64.9104 6.13675 -0.525044 -173.478 9.0562 -95.5555 -9.4208 8.40058 87.6065 -29.5469 3.92296 -18.1972 15.7009 -86.7854 18.1086 -173.292 7.51836 73.6129 -20.2931 -6.3744 -82.3837 -36.5424 -6.59247 21.1723 5.94537 86.864 -5.90323 -24.7755 -2.55749 -178.316 -19.7122 0.704296 -1.47208 -1.09234 0.544856 0.240154 90 -3.15571e-015 7.15625e-015 -6.95254 -3.1872 -178.37 -23.9648 -0.648213 -0.01521 8.95167 -8.79355 -1.09044 90 1.59028e-015 -7.95139e-016 
